Coordinates
version=1
nRows=24
nColumns=22
inDegrees=yes

Units are S.I. units (second, meters, Newtons, ...)
If the header above contains a line with 'inDegrees', this indicates whether rotational values are in degrees (yes) or radians (no).

endheader
time	pelvis_tilt	pelvis_list	pelvis_rotation	pelvis_tx	pelvis_ty	pelvis_tz	hip_flexion_r	hip_adduction_r	hip_rotation_r	knee_angle_r	ankle_angle_r	subtalar_angle_r	hip_flexion_l	hip_adduction_l	hip_rotation_l	knee_angle_l	ankle_angle_l	subtalar_angle_l	lumbar_extension	lumbar_bending	lumbar_rotation
      3.52000000	     -6.49770988	     -5.42487063	    -47.67240008	      0.89924179	      0.85708742	      0.87926804	     -9.28516862	      8.72420357	     12.49143383	    -12.69568182	     22.42587538	     -6.14231165	     30.55963709	    -18.84551180	     -4.54399342	    -15.03003712	      7.30941696	      4.92273722	     -2.72211634	      7.52727773	     24.97594947
      3.53000000	     -6.70931585	     -5.47943814	    -48.05570097	      0.90819450	      0.85504861	      0.88470279	     -9.87278124	      8.60269630	     13.01812249	    -12.83654571	     22.73280266	     -5.90743489	     30.70213816	    -19.03492483	     -3.93527961	    -13.10195703	      7.12176992	      5.25725657	     -2.56592305	      7.74365276	     25.26106775
      3.54000000	     -6.92006918	     -5.50526045	    -48.44581889	      0.91719286	      0.85300627	      0.89013119	    -10.40054750	      8.45696555	     13.55760952	    -13.04817290	     22.96508838	     -5.71493230	     30.84314937	    -19.22100378	     -3.32170503	    -11.39086595	      6.98264615	      5.50629000	     -2.38948041	      7.93734880	     25.51321861
      3.55000000	     -7.12161358	     -5.51379776	    -48.83073275	      0.92626147	      0.85095524	      0.89555496	    -10.88154159	      8.29176701	     14.06706568	    -13.33722831	     23.21670025	     -5.59056025	     30.98841782	    -19.40099338	     -2.73607859	     -9.95220853	      6.88226065	      5.65152484	     -2.20623138	      8.10817569	     25.73756499
      3.56000000	     -7.29123797	     -5.52125438	    -49.24086955	      0.93541235	      0.84897317	      0.90102382	    -11.36431370	      8.09052704	     14.60276409	    -13.66978814	     23.38299118	     -5.42473832	     31.08935787	    -19.58300611	     -2.27219381	     -8.81160229	      6.87747954	      5.83562385	     -2.05135346	      8.25059985	     25.95728565
      3.57000000	     -7.41989171	     -5.52964476	    -49.66074262	      0.94466013	      0.84704936	      0.90654196	    -11.84627939	      7.85340149	     15.14805984	    -14.06933401	     23.48928252	     -5.21359938	     31.15683829	    -19.75116392	     -1.95792904	     -8.01694503	      6.97113934	      6.03518296	     -1.92915286	      8.35268948	     26.17134703
      3.58000000	     -7.50056661	     -5.52661163	    -50.09738223	      0.95406630	      0.84519277	      0.91213318	    -12.33852419	      7.55292906	     15.65412506	    -14.50011838	     23.53027852	     -4.91037719	     31.17996970	    -19.88764202	     -1.78652643	     -7.57762038	      7.16822218	      6.22514775	     -1.82835701	      8.40218873	     26.38345485
      3.59000000	     -7.56754958	     -5.54507203	    -50.51881706	      0.96357037	      0.84337375	      0.91769229	    -12.80966150	      7.26270494	     16.14176717	    -15.02343023	     23.55945151	     -4.71604026	     31.19186505	    -20.01537948	     -1.63961183	     -7.49406351	      7.34092473	      6.22532085	     -1.76621212	      8.45126859	     26.55666540
      3.60000000	     -7.56650600	     -5.54948854	    -50.94323410	      0.97330095	      0.84166923	      0.92333018	    -13.32093613	      6.88612168	     16.61272918	    -15.54117260	     23.47403272	     -4.31310679	     31.10913109	    -20.07690465	     -1.59133858	     -7.69346562	      7.52364135	      6.06968041	     -1.73081373	      8.42788989	     26.71233774
      3.61000000	     -7.56955434	     -5.56615605	    -51.36248269	      0.98316786	      0.83998506	      0.92897971	    -13.81526136	      6.52101002	     17.10481873	    -16.10688085	     23.34459951	     -4.05307736	     31.03583507	    -20.13562260	     -1.55479727	     -8.23232388	      7.68220317	      5.84800880	     -1.70670079	      8.41147697	     26.84158213
      3.62000000	     -7.50018075	     -5.58467831	    -51.74846947	      0.99328936	      0.83843178	      0.93458697	    -14.34477721	      6.08199485	     17.53995163	    -16.69078647	     23.13143917	     -3.56667526	     30.88125155	    -20.10152273	     -1.54354790	     -9.00342919	      7.66222576	      5.38878794	     -1.73427055	      8.33477040	     26.92976627
      3.63000000	     -7.41581594	     -5.57859546	    -52.09843709	      1.00364280	      0.83691204	      0.94016738	    -14.84532055	      5.61147556	     17.95683199	    -17.30227043	     22.83988636	     -3.08226409	     30.73838837	    -19.99960425	     -1.52901237	     -9.99715821	      7.52612189	      4.96572555	     -1.74524178	      8.23078485	     26.94485662
      3.64000000	     -7.29328719	     -5.54205587	    -52.39774637	      1.01421485	      0.83547123	      0.94572376	    -15.33199627	      5.08947157	     18.33641708	    -17.92769409	     22.45361563	     -2.50865466	     30.60517855	    -19.80535262	     -1.52521515	    -11.16380394	      7.17273016	      4.59276880	     -1.74580102	      8.06571907	     26.89737383
      3.65000000	     -7.13167508	     -5.46762875	    -52.65397077	      1.02494818	      0.83413953	      0.95121174	    -15.77971492	      4.51765786	     18.70173823	    -18.59502434	     22.00078270	     -1.90777360	     30.49849492	    -19.51975530	     -1.55257077	    -12.45728890	      6.56063655	      4.38213033	     -1.74229080	      7.83895455	     26.78746784
      3.66000000	     -6.91761239	     -5.34349800	    -52.82154571	      1.03586798	      0.83294216	      0.95659711	    -16.18425454	      3.89048737	     18.95749801	    -19.30320040	     21.43862723	     -1.24820569	     30.45126668	    -19.10632396	     -1.55805685	    -13.84890082	      5.68644203	      4.35333086	     -1.72725887	      7.52645164	     26.58490785
      3.67000000	     -6.64350545	     -5.18265611	    -52.90701734	      1.04690879	      0.83193583	      0.96187270	    -16.54447970	      3.22343395	     19.12868182	    -20.08358784	     20.75590681	     -0.56405902	     30.45984600	    -18.57997537	     -1.56483296	    -15.32135508	      4.64114026	      4.50312243	     -1.72654797	      7.12986554	     26.27898315
      3.68000000	     -6.29864255	     -4.99923194	    -52.92477232	      1.05803123	      0.83120764	      0.96708195	    -16.87467418	      2.52268663	     19.23911668	    -20.94497433	     19.88608713	      0.30859438	     30.49466503	    -17.95624312	     -1.60557049	    -16.86076683	      3.56503557	      4.82738303	     -1.76057845	      6.64605798	     25.88106729
      3.69000000	     -5.84985192	     -4.76555335	    -52.83618029	      1.06924954	      0.83076035	      0.97218904	    -17.15038016	      1.76203525	     19.15842001	    -21.93437509	     18.88828531	      1.07590076	     30.55027766	    -17.17317504	     -1.62793848	    -18.45333689	      2.51761723	      5.22145884	     -1.82395745	      6.02239718	     25.40221418
      3.70000000	     -5.31453729	     -4.51015806	    -52.64910690	      1.08051864	      0.83065791	      0.97723426	    -17.38218980	      0.98384476	     18.91757756	    -23.05605436	     17.69692808	      1.83950707	     30.58522070	    -16.26865708	     -1.63245274	    -20.06529974	      1.62423131	      5.62152287	     -1.93168606	      5.29314018	     24.83274930
      3.71000000	     -4.71097694	     -4.24666658	    -52.36641727	      1.09180709	      0.83092608	      0.98222978	    -17.55948213	      0.21654953	     18.50041147	    -24.32186718	     16.28120924	      2.56627639	     30.57106363	    -15.26832503	     -1.62158111	    -21.65266722	      0.94882559	      5.96107335	     -2.08240515	      4.48450062	     24.19348420
      3.72000000	     -4.08172754	     -3.98955111	    -51.99164065	      1.10307803	      0.83155968	      0.98716290	    -17.65724098	     -0.49332207	     17.91678303	    -25.73380278	     14.62801501	      3.24529609	     30.49635936	    -14.21270274	     -1.57440374	    -23.15920677	      0.51592942	      6.19499373	     -2.26042456	      3.64819830	     23.50183990
      3.73000000	     -3.47954270	     -3.74995705	    -51.55052967	      1.11428501	      0.83253829	      0.99202260	    -17.63469598	     -1.10372786	     17.21385131	    -27.29385627	     12.72803036	      3.86990935	     30.35165335	    -13.15967101	     -1.50608241	    -24.52194644	      0.35115812	      6.30263531	     -2.43991660	      2.84888608	     22.75709530
      3.74000000	     -2.96295643	     -3.55384179	    -51.05682556	      1.12536394	      0.83380501	      0.99673149	    -17.44652188	     -1.56262057	     16.39483696	    -29.01723726	     10.63278758	      4.33650797	     30.16102903	    -12.16997580	     -1.37767194	    -25.73698841	      0.42192694	      6.30356807	     -2.60825443	      2.16059138	     22.02000362
      3.75000000	     -2.54322283	     -3.38864212	    -50.58092499	      1.13626940	      0.83535364	      1.00132704	    -17.06492870	     -1.90070640	     15.57264168	    -30.88710568	      8.36056629	      4.90095679	     29.88390553	    -11.28093613	     -1.30561963	    -26.73602437	      0.75556526	      6.16992183	     -2.74035880	      1.60011050	     21.31804094
